<svg width="342" height="40" viewBox="0 0 342 40" fill="none" xmlns="http://www.w3.org/2000/svg">
<path d="M324.894 6.896H325.126C325.659 9.424 325.891 10.576 326.432 12.4107L329.579 24.8267H320.366L323.512 12.4107C323.974 10.576 324.28 9.424 324.891 6.896M333.256 39.464H341.934L331.038 0.76H319.214L308.238 39.4667H316.451L318.904 30.8053H330.803L333.256 39.464ZM289.43 39.9973C294.19 39.9973 298.795 38.8507 301.792 37.624V18.24H288.432V24.4453H293.886V33.1013C292.886 33.7147 291.192 34.1013 289.358 34.1013C283.678 34.1013 281.91 31.2667 281.91 23.0693V18.08C281.91 9.96 283.595 5.97333 288.816 5.97333C292.424 5.97333 293.659 8.42667 293.739 11.0347H301.952C301.862 4.21333 296.955 0 288.814 0C277.448 0 273.31 6.58667 273.31 17.2453V22.9173C273.23 34.4853 277.15 40 289.427 40M250.979 6.896H251.214C251.747 9.424 251.982 10.576 252.515 12.4107L255.667 24.8267H246.454L249.6 12.4107C250.059 10.576 250.366 9.424 250.979 6.896ZM259.347 39.4667H268.014L257.123 0.76H245.294L234.328 39.4667H242.542L244.995 30.8053H256.888L259.347 39.464V39.4667ZM217.894 39.4667H226.107V0.76H217.894V39.4667ZM195.328 40C204.459 40 208.912 35.7813 209.142 27.8987H200.856C200.702 31.728 199.47 34.1013 195.56 34.1013C191.112 34.1013 189.427 30.9627 189.427 22.9173V17.2453C189.427 9.12 191.112 6.05867 195.56 6.05867C199.71 6.05867 200.398 8.81867 200.547 11.7307H208.835C208.755 4.98667 204.92 0.16 195.331 0.16C184.659 0.16 180.749 6.82667 180.749 17.2453V22.9173C180.749 33.4133 184.656 40 195.328 40ZM139.755 39.4667H147.051V17.0133C147.051 13.872 146.891 10.04 146.736 6.896H146.976C148.123 10.88 148.736 12.9493 149.811 15.936L158.333 39.4667H170.307V0.76H163.013V22.3013C163.013 25.128 163.093 28.888 163.168 32.488H162.939C162.325 29.8027 161.781 27.12 160.171 22.7547L152.189 0.762667H139.683V39.4667H139.755ZM106.288 39.4667H128.624V33.2533H114.501V22.5253H127.315V16.248H114.499V6.896H128.085V0.688H106.28V39.4613L106.288 39.4667ZM76.2801 39.4667H97.7735V33.2533H84.4935V0.762667H76.2801V39.4667ZM50.7974 6.89333H51.0294C51.5628 9.42133 51.8028 10.5733 52.3361 12.408L55.4828 24.824H46.2748L49.4215 12.408C49.8801 10.5733 50.1895 9.42133 50.8001 6.89333M59.1655 39.4667H67.8401L56.9388 0.76H45.1201L34.1414 39.4667H42.3548L44.8081 30.8053H56.7095L59.1681 39.464L59.1655 39.4667ZM8.8881 33.5627V22.304H13.8801C18.1014 22.304 20.0934 24.2187 20.0934 27.968C20.0934 32.1013 17.4854 33.6427 13.7254 33.6427H8.8881V33.5627ZM8.8881 16.3973V6.66667H14.0348C17.7894 6.66667 19.4028 8.34667 19.4028 11.4933C19.4028 14.64 17.5708 16.4 14.1121 16.4H8.8881V16.3973ZM0.674764 39.4667H15.1814C23.3148 39.4667 28.3014 36.5467 28.3014 28.5067C28.3014 23.3707 25.3148 19.8507 19.7841 19.3067V19.0827C24.6908 18.24 27.6134 15.5573 27.6134 10.424C27.6134 3.752 23.7734 0.765333 15.5654 0.765333H0.600098V39.4667H0.674764Z" fill="#656464"/>
</svg>
