<svg width="250" height="40" viewBox="0 0 250 40" fill="none" xmlns="http://www.w3.org/2000/svg">
<path d="M20.9123 0.118519C26.2441 0.118519 31.2204 1.83704 35.1896 4.74074L35.2488 4.8C35.6635 5.0963 37.5 6.57778 37.5 7.94074V14.8148C35.6635 10.3111 32.4645 6.51852 28.3768 3.97037C26.1256 2.78519 23.2227 2.01482 20.4976 2.01482C16.3507 2.01482 12.0853 4.62222 10.1896 8.41482L9.95261 8.77037C8.05687 12.0889 6.99052 15.9407 6.99052 20.0889C6.99052 24.2963 8.2346 28.563 10.2488 31.763L10.4265 32.1185C12.3815 35.6148 16.173 37.9259 20.4384 37.9259C22.3934 37.9259 24.2299 37.4519 25.8294 36.563C25.8294 36.563 29.1469 34.8444 30.0355 33.8963C30.7464 33.1852 31.1611 32.237 31.1611 31.1704L31.1019 25.837C31.1019 24.1185 30.2725 22.637 28.9692 21.7482H39.6327C38.3886 22.637 37.5 24.1778 37.5 25.837V31.5259C37.5 32.4148 37.2038 33.2444 36.7299 33.8963L36.1967 34.4889C32.0498 37.8667 26.718 39.9407 20.9716 39.9407C19.609 40.0593 17.5948 39.7037 17.5948 39.7037C7.70142 38.6963 0 30.2815 0 20.0889C0 10.5482 6.69431 2.54815 15.6991 0.651852H15.8175C16.4692 0.533333 19.0166 0.118519 20.9123 0.118519ZM201.363 0.0592593C206.694 0.0592593 211.671 1.77778 215.64 4.68148C215.64 4.68148 218.009 6.34074 218.009 7.88148V14.7556C216.173 10.2519 212.974 6.45926 208.886 3.91111C206.635 2.72593 203.732 1.95556 201.007 1.95556C196.86 1.95556 192.595 4.56296 190.699 8.35556L190.462 8.71111C188.566 12.0296 187.5 15.8815 187.5 20.0296C187.5 24.1185 188.566 27.9704 190.462 31.3482L190.699 31.7037C192.536 35.5556 196.801 37.9259 200.948 37.9259C203.673 37.9259 206.576 37.0963 208.827 35.9111C211.552 34.3704 216.173 31.763 218.898 24.9482L217.95 32.1778C217.95 33.7185 215.521 35.2 215.521 35.2C211.552 38.163 206.694 39.8222 201.303 39.8222C199.111 39.8222 196.09 39.2889 196.09 39.2889C187.085 37.3926 180.391 29.5704 180.391 20.0296C180.391 10.4889 187.085 2.48889 196.09 0.592593H196.149C196.682 0.474074 199.348 0.0592593 201.363 0.0592593ZM250 1.71852C248.756 2.60741 247.927 4.08889 247.927 5.74815V35.9111C247.927 37.5111 248.697 38.9926 249.941 39.8815H239.81C240.995 38.9926 241.825 37.5704 241.825 35.9111V5.74815C241.825 4.08889 240.995 2.60741 239.751 1.71852H250ZM71.2678 1.71852C70.0237 2.60741 69.1351 4.08889 69.1351 5.74815V28.2667C69.4905 31.8815 71.9787 34.963 75.2962 36.1482L75.4739 36.2074C77.3104 36.9185 79.3246 37.3333 81.4573 37.3333C84.8341 37.3333 88.4479 36.1482 90.4621 34.5482L90.5213 34.4889C92.3578 32.9482 93.5426 30.7556 93.8389 28.2667V28.2074V5.68889C93.8389 4.02963 93.0095 2.60741 91.7654 1.71852H97.8081C96.564 2.60741 95.7346 4.02963 95.7346 5.68889V28.3259C95.4384 32.4741 92.8317 35.9704 89.2773 37.5704H89.218C86.2559 39.0519 82.8792 39.8222 79.3839 39.8222C75.8886 39.8222 72.6303 38.9926 69.6682 37.5704H69.609C65.9953 35.9704 63.4479 32.4741 63.0924 28.3852V5.86667C63.0924 4.20741 62.263 2.66667 61.019 1.77778H71.2678V1.71852ZM139.455 0C144.787 0 149.763 1.71852 153.732 4.62222C153.732 4.62222 156.102 6.28148 156.102 7.82222V14.6963C154.265 10.1926 151.066 6.4 146.979 3.85185C144.727 2.66667 141.825 1.8963 139.1 1.8963C134.953 1.8963 130.687 4.5037 128.791 8.2963L128.555 8.65185C126.659 11.9704 125.592 15.8222 125.592 19.9704C125.592 24.1185 126.659 27.9111 128.555 31.2889L128.791 31.6444C130.687 35.437 134.953 37.8074 139.1 37.8074C141.825 37.8074 144.727 36.9778 146.979 35.7926C149.645 34.2519 154.325 31.6444 157.05 24.8296L156.102 32.0593C156.102 33.6 153.673 35.0815 153.673 35.0815C149.704 38.0444 144.846 39.7037 139.455 39.7037C137.5 39.7037 134.775 39.2296 134.301 39.1704H134.242C125.237 37.2741 118.543 29.4519 118.543 19.9111C118.543 10.3704 125.237 2.37037 134.242 0.474074C134.242 0.533333 137.322 0 139.455 0Z" fill="#656464"/>
</svg>
