<svg width="50" height="50" viewBox="0 0 50 50" fill="none" xmlns="http://www.w3.org/2000/svg">
<circle cx="25" cy="25" r="24.5" stroke="#D6B697"/>
<path d="M35.7361 20.5656C35.7239 19.6567 35.5538 18.7569 35.2332 17.9064C34.9553 17.1889 34.5307 16.5374 33.9867 15.9934C33.4426 15.4493 32.7911 15.0247 32.0737 14.7468C31.2341 14.4316 30.3471 14.2612 29.4504 14.2428C28.296 14.1912 27.93 14.1768 24.9996 14.1768C22.0692 14.1768 21.6936 14.1768 20.5476 14.2428C19.6514 14.2613 18.7649 14.4317 17.9256 14.7468C17.2081 15.0245 16.5565 15.4491 16.0124 15.9931C15.4683 16.5372 15.0438 17.1888 14.766 17.9064C14.4502 18.7453 14.2802 19.6321 14.2632 20.5284C14.2116 21.684 14.196 22.05 14.196 24.9804C14.196 27.9108 14.196 28.2852 14.2632 29.4324C14.2812 30.33 14.4504 31.2156 14.766 32.0568C15.0443 32.7741 15.4691 33.4255 16.0134 33.9693C16.5576 34.5131 17.2093 34.9375 17.9268 35.2152C18.7638 35.543 19.6505 35.7256 20.5488 35.7552C21.7044 35.8068 22.0704 35.8224 25.0008 35.8224C27.9312 35.8224 28.3068 35.8224 29.4528 35.7552C30.3494 35.7375 31.2365 35.5675 32.076 35.2524C32.7933 34.9741 33.4447 34.5494 33.9887 34.0054C34.5327 33.4614 34.9573 32.81 35.2357 32.0928C35.5513 31.2528 35.7204 30.3672 35.7384 29.4684C35.7901 28.314 35.8056 27.948 35.8056 25.0164C35.8032 22.086 35.8033 21.714 35.7361 20.5656ZM24.9924 30.522C21.9276 30.522 19.4448 28.0392 19.4448 24.9744C19.4448 21.9096 21.9276 19.4268 24.9924 19.4268C26.4638 19.4268 27.8748 20.0112 28.9152 21.0516C29.9556 22.092 30.5401 23.503 30.5401 24.9744C30.5401 26.4457 29.9556 27.8567 28.9152 28.8971C27.8748 29.9375 26.4638 30.522 24.9924 30.522ZM30.7608 20.5152C30.5909 20.5153 30.4226 20.482 30.2656 20.417C30.1086 20.3521 29.9659 20.2568 29.8458 20.1366C29.7256 20.0165 29.6304 19.8738 29.5654 19.7168C29.5004 19.5598 29.4671 19.3915 29.4672 19.2216C29.4672 19.0518 29.5007 18.8836 29.5657 18.7267C29.6307 18.5699 29.7259 18.4273 29.846 18.3073C29.966 18.1872 30.1086 18.092 30.2654 18.027C30.4223 17.962 30.5905 17.9286 30.7603 17.9286C30.93 17.9286 31.0982 17.962 31.2551 18.027C31.4119 18.092 31.5545 18.1872 31.6745 18.3073C31.7946 18.4273 31.8898 18.5699 31.9548 18.7267C32.0198 18.8836 32.0532 19.0518 32.0532 19.2216C32.0532 19.9368 31.4748 20.5152 30.7608 20.5152Z" fill="#D6B697"/>
<path d="M24.9924 28.5781C26.9826 28.5781 28.596 26.9647 28.596 24.9745C28.596 22.9842 26.9826 21.3708 24.9924 21.3708C23.0022 21.3708 21.3888 22.9842 21.3888 24.9745C21.3888 26.9647 23.0022 28.5781 24.9924 28.5781Z" fill="#D6B697"/>
</svg>
