<svg width="50" height="48" viewBox="0 0 50 48" fill="none" xmlns="http://www.w3.org/2000/svg">
<path d="M17.1443 45.5163H35.0974C40.7583 45.5163 43.8313 40.8189 45.1791 38.0112L45.9878 36.0135H49.2765L42.9687 48H0.161739L1.29391 45.4623H2.9113C2.96522 45.4623 2.96522 45.4623 3.01913 45.4623C3.23478 45.4623 3.45043 45.4623 3.66609 45.4623H4.90609C6.95478 45.4083 9.16522 44.7604 10.6748 40.9269C10.8365 40.5489 10.9443 40.225 11.1061 39.955L15.3652 29.0484L6.2 7.72103C5.98435 7.39708 5.82261 6.96513 5.60696 6.53318C4.47478 3.88751 2.80348 3.07762 1.56348 2.80765H0V0H14.8261V2.80765H14.1252C14.0713 2.80765 14.0174 2.80765 14.0174 2.80765C12.7774 2.80765 11.4835 2.86164 12.2922 4.75141C12.3461 4.85939 12.3461 4.96738 12.4 5.02137L18.9235 20.1395L22.4817 11.0146C22.913 9.5568 22.2122 9.07087 21.5113 8.96288H19.7322L21.08 5.83127H36.4991L35.1513 8.96288H32.7252C31.647 9.23285 30.2452 10.0967 29.0591 12.4724L22.5896 28.7244L25.8783 36.2835L25.9322 36.3375C26.0939 36.7694 26.3635 36.9854 26.7409 36.3375C26.7409 36.2835 26.7948 36.2835 26.7948 36.2295L39.68 7.82902C39.7878 7.50506 39.9496 7.12711 40.1652 6.69516C41.513 3.72553 40.1652 2.96963 39.087 2.80765H37.2V0H49.6V2.80765H47.5513C46.7426 2.96963 45.5026 3.45557 44.3704 5.12936L27.2261 42.9786L21.4035 42.8706L19.0852 37.5793L16.3896 44.3825C16.3896 44.4364 16.3896 44.4904 16.3357 44.5444C16.12 45.3003 16.4974 45.5163 17.1443 45.5163Z" fill="#656464"/>
</svg>
