<svg width="50" height="50" viewBox="0 0 50 50" fill="none" xmlns="http://www.w3.org/2000/svg">
<path d="M36.3996 20.7852V30.8496C36.3996 32.5896 34.9896 33.9996 33.2496 33.9996H16.7496C15.9142 33.9996 15.113 33.6678 14.5222 33.077C13.9315 32.4863 13.5996 31.6851 13.5996 30.8496V20.7852L24.6384 26.8572C24.8634 26.9808 25.1364 26.9808 25.3608 26.8572L36.3996 20.7846V20.7852ZM33.2496 15.9996C34.0719 15.9997 34.8616 16.3213 35.4499 16.8958C36.0383 17.4702 36.3787 18.252 36.3984 19.074L24.9996 25.344L13.6008 19.0734L13.602 19.0194C13.6356 18.2072 13.9819 17.4394 14.5686 16.8766C15.1552 16.3138 15.9367 15.9996 16.7496 15.9996H33.2496Z" fill="#D6B697"/>
<circle cx="25" cy="25" r="24.5" stroke="#D6B697"/>
</svg>
