<svg width="56" height="72" viewBox="0 0 56 72" fill="none" xmlns="http://www.w3.org/2000/svg">
<path d="M55.816 44.445H55.522C54.4142 47.4842 52.6749 50.2541 50.4188 52.5722C48.1627 54.8904 45.441 56.7041 42.433 57.894V44.445L49.765 37.899L42.433 31.353V22.191C45.5152 22.1995 48.4773 20.9967 50.6809 18.8418C52.8846 16.687 54.1535 13.7526 54.2141 10.671C54.2141 2.78403 46.687 0.00303099 42.433 0.00303099C41.3311 -0.0184043 40.231 0.102597 39.16 0.363031V0.756031H40.828C41.4337 0.6492 42.055 0.669974 42.6522 0.817024C43.2494 0.964074 43.8093 1.23416 44.2961 1.61001C44.7829 1.98585 45.1859 2.45918 45.4794 2.9997C45.7728 3.54022 45.9501 4.13604 46 4.74903C45.9765 5.31152 45.8423 5.86385 45.6052 6.37445C45.3681 6.88505 45.0326 7.3439 44.618 7.72477C44.2035 8.10564 43.7179 8.40107 43.189 8.59415C42.6602 8.78723 42.0985 8.87418 41.536 8.85003L41.353 8.83803C34.021 8.83803 25.384 2.88303 15.991 2.88303C12.4599 2.69454 8.99658 3.90402 6.35047 6.24975C3.70437 8.59548 2.08832 11.8888 1.85203 15.417C1.74249 17.6423 2.43033 19.8337 3.7919 21.5973C5.15346 23.3608 7.09945 24.5808 9.28003 25.038V24.678C8.60373 24.2429 8.05801 23.6327 7.70091 22.9121C7.34381 22.1916 7.18869 21.3877 7.25203 20.586C7.35875 19.1229 8.04228 17.762 9.15228 16.8028C10.2623 15.8436 11.7079 15.3645 13.171 15.471L13.273 15.483C21.16 15.483 33.889 22.029 41.776 22.029H42.07V31.455L34.738 38.001L42.07 44.547V58.194C39.1352 59.1609 36.0608 59.6363 32.971 59.601C27.9527 59.8541 23.0194 58.2332 19.129 55.053L32.416 49.098V22.353L13.828 30.534C14.7059 27.9381 16.1174 25.5547 17.9717 23.537C19.8261 21.5194 22.0822 19.9123 24.595 18.819V18.525C11.047 21.537 0.18103 31.254 0.18103 44.64C0.18103 60.219 12.256 72 29.635 72C47.668 72 55.816 58.911 55.816 45.558V44.445ZM18.574 54.558C16.5518 52.5364 14.9721 50.1162 13.9356 47.4512C12.899 44.7863 12.4282 41.9348 12.553 39.078C12.5046 36.4392 12.8804 33.8097 13.666 31.29L19.819 28.476V53.904L18.574 54.558Z" fill="#656464"/>
</svg>
