<svg width="50" height="50" viewBox="0 0 50 50" fill="none" xmlns="http://www.w3.org/2000/svg">
<circle cx="25" cy="25" r="24.5" stroke="#D6B697"/>
<path d="M38.9712 16.524C37.9692 16.968 36.8928 17.268 35.7612 17.4036C36.9288 16.705 37.8023 15.6054 38.2188 14.31C37.1218 14.9616 35.9212 15.4203 34.6692 15.666C33.8273 14.7671 32.7121 14.1712 31.4968 13.971C30.2815 13.7708 29.0341 13.9774 27.9483 14.5587C26.8625 15.1401 25.9989 16.0637 25.4918 17.1861C24.9846 18.3085 24.8622 19.5669 25.1436 20.766C22.9208 20.6544 20.7464 20.0767 18.7613 19.0703C16.7763 18.0639 15.025 16.6514 13.6212 14.9244C13.1412 15.7524 12.8652 16.7124 12.8652 17.7348C12.8647 18.6552 13.0913 19.5615 13.5251 20.3733C13.9588 21.1851 14.5862 21.8773 15.3516 22.3884C14.4639 22.3602 13.5958 22.1203 12.8196 21.6888V21.7608C12.8195 23.0517 13.266 24.3029 14.0834 25.302C14.9008 26.3012 16.0387 26.9867 17.304 27.2424C16.4805 27.4653 15.6172 27.4981 14.7792 27.3384C15.1362 28.4492 15.8316 29.4205 16.768 30.1163C17.7045 30.8122 18.8351 31.1978 20.0016 31.2192C18.0214 32.7737 15.5759 33.6169 13.0584 33.6132C12.6125 33.6134 12.1669 33.5873 11.724 33.5352C14.2794 35.1782 17.254 36.0502 20.292 36.0468C30.576 36.0468 36.198 27.5292 36.198 20.142C36.198 19.902 36.192 19.6596 36.1812 19.4196C37.2747 18.6288 38.2187 17.6495 38.9688 16.5276L38.9712 16.524Z" fill="#D6B697"/>
</svg>
